<svg width="43" height="29" viewBox="0 0 43 29" fill="none" xmlns="http://www.w3.org/2000/svg">
<path d="M18 28.04C16.32 27.9333 14.64 27.64 12.96 27.16C11.3067 26.68 9.78667 25.9333 8.4 24.92C7.04 23.88 5.93333 22.5333 5.08 20.88C4.25333 19.2 3.84 17.1333 3.84 14.68V4.44H2.98023e-08V-1.90735e-06H16.8V4.44H8.48V14.64C8.48 16.3467 8.74667 17.7733 9.28 18.92C9.84 20.04 10.5733 20.9333 11.48 21.6C12.4133 22.2667 13.44 22.76 14.56 23.08C15.7067 23.4 16.8533 23.6 18 23.68V28.04ZM21.5813 28V-1.90735e-06H26.2213C27.6879 -1.90735e-06 29.1679 0.119998 30.6613 0.359998C32.1813 0.599998 33.6346 1.01333 35.0213 1.6C36.4346 2.16 37.6879 2.96 38.7812 4C39.9013 5.01333 40.7813 6.29333 41.4213 7.84C42.0613 9.36 42.3813 11.2133 42.3813 13.4V28H37.7413V18.68H26.2213V28H21.5813ZM26.2213 14.28H37.7413V13.44C37.7413 11.44 37.3813 9.82667 36.6613 8.6C35.9679 7.37333 35.0479 6.44 33.9013 5.8C32.7546 5.13333 31.5013 4.68 30.1413 4.44C28.8079 4.2 27.5013 4.08 26.2213 4.08V14.28Z" fill="white"/>
</svg>
